<svg height="512pt" viewBox="-23 0 512 512" width="512pt" xmlns="http://www.w3.org/2000/svg" xmlns:xlink="http://www.w3.org/1999/xlink"><linearGradient id="a" gradientUnits="userSpaceOnUse" x1="-.000074" x2="465.678126" y1="256" y2="256"><stop offset="0" stop-color="#80d8ff"/><stop offset="1" stop-color="#ea80fc"/></linearGradient><path d="m435.652344 256c25.804687-38.960938 42.0625-87.882812 18.886718-128-23.179687-40.148438-73.703124-50.5-120.285156-47.640625-20.777344-41.691406-54.996094-80.359375-101.414062-80.359375-46.40625 0-80.628906 38.648438-101.417969 80.359375-46.632813-2.863281-97.121094 7.519531-120.28125 47.636719-23.210937 40.183594-6.851563 89.144531 18.882813 128.003906-25.800782 38.960938-42.058594 87.882812-18.886719 128 23.199219 40.179688 73.796875 50.503906 120.292969 47.648438 20.777343 41.695312 54.996093 80.351562 101.410156 80.351562 46.402344 0 80.625-38.644531 101.410156-80.351562 46.507812 2.855468 97.097656-7.476563 120.285156-47.644532 23.214844-40.183594 6.851563-89.148437-18.882812-128.003906zm-15.753906-107.996094c27.425781 47.476563-48.265626 123.714844-49.347657 124.832032 1.707031-50.492188-4.226562-104.742188-20.140625-152.902344 34.023438.351562 59.210938 10.265625 69.488282 28.070312zm-187.058594 217.3125c-32.488282-13.734375-65.40625-32.535156-94.675782-54.667968-4.433593-35.636719-4.4375-73.632813 0-109.296876 27.960938-21.144531 60.664063-40.292968 94.675782-54.667968 32.613281 13.789062 65.515625 32.617187 94.671875 54.667968 4.4375 35.632813 4.4375 73.632813 0 109.296876-27.84375 21.058593-60.53125 40.234374-94.671875 54.667968zm0-325.316406c54.859375 0 82.996094 103.605469 83.433594 105.160156-43.4375-27.085937-93.351563-48.820312-142.496094-59.007812 17.316406-29.292969 38.503906-46.152344 59.0625-46.152344zm-187.058594 108c27.476562-47.597656 131.449219-20.007812 132.769531-19.675781-44.800781 23.886719-88.828125 56.289062-122.335937 93.890625-16.707032-29.640625-20.71875-56.414063-10.433594-74.214844zm-.003906 215.996094c-27.40625-47.445313 48.324218-123.773438 49.351562-124.832032-1.707031 50.496094 4.226563 104.746094 20.136719 152.902344-34.023437-.351562-59.210937-10.265625-69.488281-28.070312zm187.0625 108.003906c-39.996094 0-70.128906-58.226562-83.4375-105.160156 43.34375 27.027344 93.261718 48.800781 142.5 59.007812-17.320313 29.289063-38.503906 46.152344-59.0625 46.152344zm187.058594-108c-9.433594 16.339844-45.402344 41.726562-132.773438 19.671875 61.863281-32.976563 101.507812-70.515625 122.335938-93.886719 16.710937 29.640625 20.71875 56.414063 10.4375 74.214844zm-187.058594-167c-32.53125 0-59 26.46875-59 59s26.46875 59 59 59 59-26.46875 59-59-26.46875-59-59-59zm0 78c-10.476563 0-19-8.523438-19-19s8.523437-19 19-19c10.476562 0 19 8.523438 19 19s-8.523438 19-19 19zm0 0" fill="url(#a)"/></svg>